<svg
    style=" display: flex; width: 100px;" 
    id="Layer_1" 
    data-name="Layer 1" 
    xmlns="http://www.w3.org/2000/svg" 
    viewBox="0 0 430.69 204.56">
    <defs>
        <style>
            .cls-1{fill:#0171b6;}
        </style>
    </defs>
    <path class="cls-1" d="M550.64,246.13c-.87,2.34-1.74,4.47-2.46,6.66-1,3.13-1.9,6.31-2.94,9.43-1.36,4.09-2.83,8.16-4.24,12.24a9.27,9.27,0,0,1-.67,1.92c-.17.29-.78.43-1.19.43q-13.2,0-26.39,0c-1.08,0-2.17-.06-3.24,0a1.48,1.48,0,0,0-1.09.65c-1.33,3.82-2.6,7.67-3.87,11.51-1.14,3.48-2.24,7-3.4,10.44-1.39,4.17-2.85,8.32-4.24,12.49-1.12,3.36-2.16,6.75-3.28,10.11-1.44,4.32-3.06,8.6-4.35,13-1,3.23.77,6.54,4.62,6.55,7.84,0,15.68,0,23.52,0,1.24,0,1.31.18.9,1.36-1,2.8-1.85,5.64-2.82,8.44-.57,1.66-1.28,3.28-1.86,4.94s-1,3.11-1.48,4.65c-.76,2.29-1.6,4.56-2.36,6.85a36.38,36.38,0,0,0-1,3.58,1,1,0,0,1-1.12.91c-1.68,0-3.36,0-5,0q-27.12,0-54.23,0a14.24,14.24,0,0,1-4.17-.58,6.77,6.77,0,0,1-3.8-3.43c-1.6-2.76-.88-5.26,0-7.9s1.7-5.32,2.59-8,1.79-5.18,2.66-7.77,1.72-5.32,2.61-8c1.05-3.12,2.15-6.22,3.2-9.34.87-2.56,1.69-5.15,2.55-7.72.73-2.21,1.5-4.4,2.24-6.61s1.37-4.29,2.09-6.43c1.37-4.1,2.76-8.19,4.14-12.28,1.18-3.55,2.33-7.12,3.53-10.66,1.55-4.58,3.15-9.15,4.69-13.73,1.18-3.52,2.29-7.07,3.47-10.59,1.38-4.16,2.82-8.29,4.2-12.44,1-3.09,2-6.21,3-9.3,1.38-4.12,2.83-8.22,4.21-12.34,1.18-3.54,2.29-7.1,3.46-10.64s2.42-7.06,3.57-10.6a1.13,1.13,0,0,1,1.29-.92h1l37,0c1.21,0,1.35.14,1,1.29q-2.43,7.38-4.88,14.77-1.9,5.7-3.83,11.38c-1.4,4.12-2.82,8.23-4.22,12.35-.3.88-.57,1.78-.79,2.69,0,.15.24.46.43.54a2.55,2.55,0,0,0,.83,0h30.23Z" transform="translate(-189.32 -203.09)"/><path class="cls-1" d="M267.77,341.59c-1.08,3.11-2.15,6.1-3.16,9.11-.88,2.64-1.66,5.32-2.54,8s-1.81,5.18-2.69,7.78c-.57,1.67-1.05,3.37-1.65,5a1.4,1.4,0,0,1-.9.8,20.85,20.85,0,0,1-2.74.08H198.78c-1.79,0-3.61.1-5.2-.92a11.62,11.62,0,0,1-1.53-1.37,6.07,6.07,0,0,0-.7-.73,4.71,4.71,0,0,1-1.95-5,45.26,45.26,0,0,1,1.84-6.7c1.33-4.18,2.73-8.34,4.12-12.5s2.83-8.21,4.21-12.33c1.19-3.57,2.29-7.16,3.48-10.73,1.38-4.12,2.83-8.21,4.21-12.33,1.19-3.57,2.28-7.16,3.47-10.73,1.37-4.08,2.81-8.14,4.18-12.22,1.19-3.52,2.31-7.07,3.48-10.6s2.33-7.06,3.51-10.58,2.37-7.22,3.68-10.78c1.21-3.29,3.17-6.11,6.52-7.49a15.45,15.45,0,0,1,5.6-1.2c20.23-.08,40.47-.05,60.71-.05.63,0,1.3-.34.8,1-1.33,3.51-2.35,7.15-3.54,10.73-1.05,3.16-2.18,6.29-3.22,9.45q-1.33,4-2.55,8.09a1.74,1.74,0,0,1-2,1.48c-8.28-.07-16.56-.06-24.84,0a6.79,6.79,0,0,0-3.43.58,6.2,6.2,0,0,0-2.29,2.92c-1.54,4.2-2.88,8.47-4.28,12.71-1.17,3.52-2.32,7-3.48,10.56q-1.93,5.86-3.88,11.73c-.93,2.82-1.86,5.64-2.84,8.45-.75,2.14-1.57,4.26-2.36,6.38a18.41,18.41,0,0,0-1.48,4.06c-.25,2.17-.63,4.59,1.47,6.17a5.59,5.59,0,0,0,3.07,1.12c7.63.1,15.27.06,22.91.06Z" transform="translate(-189.32 -203.09)"/>
    <path class="cls-1" d="M280.74,407.65H262c-1.34,0-1.39,0-1-1.29,1.26-3.81,2.55-7.6,3.79-11.41,1-3.19,2-6.4,3.05-9.58.54-1.64,1.28-3.21,1.84-4.84s.94-3.28,1.48-4.89c.74-2.18,1.59-4.33,2.33-6.51.55-1.65,1-3.35,1.51-5,.74-2.19,1.59-4.33,2.33-6.52.55-1.65,1-3.35,1.51-5,.74-2.18,1.59-4.33,2.33-6.51.55-1.61,1-3.27,1.51-4.89.74-2.22,1.58-4.41,2.33-6.62.54-1.62,1-3.28,1.51-4.89.74-2.22,1.59-4.41,2.33-6.63.55-1.65,1-3.36,1.51-5,.74-2.18,1.59-4.31,2.33-6.49.55-1.65,1-3.35,1.51-5,.74-2.18,1.58-4.32,2.32-6.5.54-1.57,1-3.18,1.51-4.76.77-2.29,1.6-4.56,2.37-6.85.52-1.54.95-3.11,1.47-4.65.77-2.29,1.6-4.56,2.36-6.85.53-1.58,1-3.19,1.48-4.77.76-2.25,1.62-4.47,2.35-6.73s1.28-4.38,2-6.55c.53-1.61,1.24-3.16,1.78-4.77s1.06-3.41,1.57-5.11c.19-.62.18-1.42.58-1.81a3.42,3.42,0,0,1,2.07-1.05c12-.06,23.92,0,35.88,0h.84c2,0,2,0,1.36,1.85-1.23,3.53-2.5,7-3.67,10.59-1.37,4.13-2.63,8.3-4,12.43-1.17,3.54-2.48,7-3.66,10.57-1.06,3.17-2,6.38-3,9.54-1.51,4.5-3.12,9-4.63,13.46-1.05,3.12-2,6.29-3,9.42s-2.09,6.17-3.13,9.26q-1.8,5.42-3.59,10.83c-.86,2.56-1.76,5.11-2.61,7.67-1.07,3.21-2.09,6.43-3.15,9.64-.85,2.57-1.72,5.14-2.58,7.71l-3.18,9.48c-.86,2.56-1.74,5.11-2.59,7.68-1.07,3.24-2.09,6.51-3.18,9.74-1.19,3.54-2.46,7-3.65,10.58-.9,2.68-1.72,5.38-2.57,8.08-.19.6-.4,1.19-.6,1.79a1.54,1.54,0,0,1-1.74,1.17c-6.28-.06-12.56,0-18.84,0Z" transform="translate(-189.32 -203.09)"/><path class="cls-1" d="M334.92,407.59c-6.36,0-12.72,0-19.07,0-1,0-1.11-.36-.81-1.23,1.1-3.21,2.12-6.44,3.21-9.65.9-2.66,1.87-5.29,2.76-8,1-3.07,2-6.17,3-9.24,1.37-4.11,2.79-8.2,4.16-12.31,1.19-3.6,2.32-7.21,3.53-10.81,1-3.1,2.17-6.18,3.22-9.29,1.19-3.55,2.3-7.13,3.49-10.69,1-3.15,2.17-6.27,3.22-9.42s2-6.11,3-9.15,2.17-6.28,3.22-9.43,2-6.27,3-9.4,2.12-6.21,3.15-9.33c.89-2.67,1.71-5.38,2.6-8.05s1.87-5.23,2.75-7.87c1-3.09,2-6.2,3-9.29s2.15-6.22,3.2-9.33q1.31-3.91,2.54-7.84a1.39,1.39,0,0,1,1.56-1.21c7.64,0,15.28,0,22.92.06a10.48,10.48,0,0,1,6.25,2.56,11.75,11.75,0,0,1,4.64,7.12,16.65,16.65,0,0,1-.18,6.25,79.15,79.15,0,0,1-2.55,8.33c-1.19,3.59-2.47,7.14-3.67,10.72s-2.31,7.11-3.5,10.65c-1.4,4.17-2.85,8.33-4.24,12.5-1.17,3.5-2.27,7-3.45,10.54-1.39,4.17-2.84,8.32-4.23,12.49-1.16,3.47-2.24,7-3.4,10.43-1.41,4.21-2.88,8.4-4.28,12.6-1.18,3.51-2.28,7-3.45,10.54-1.39,4.17-2.84,8.31-4.23,12.48-1.14,3.43-2.19,6.89-3.34,10.32-1.43,4.28-2.94,8.53-4.37,12.81-1.12,3.35-2.21,6.72-3.22,10.11-.26.9-.73,1-1.53,1-6.32,0-12.64,0-19,0Z" transform="translate(-189.32 -203.09)"/>
    <path class="cls-1" d="M387.87,407.59H369c-1.47,0-1.46,0-1-1.44,1.65-5,3.26-10.06,4.94-15.07,1.19-3.55,2.48-7.05,3.68-10.59s2.3-7.12,3.48-10.68c.74-2.21,1.57-4.39,2.3-6.6.87-2.63,1.64-5.3,2.52-7.93,1-3.11,2.15-6.19,3.19-9.29.87-2.58,1.68-5.18,2.54-7.76.93-2.76,1.91-5.49,2.84-8.25.69-2.06,1.3-4.15,2-6.22s1.54-4.38,2.26-6.58c.87-2.66,1.68-5.34,2.54-8,.66-2,1.38-4.05,2.06-6.07.75-2.25,1.49-4.5,2.25-6.74.89-2.6,1.82-5.19,2.7-7.8.57-1.66,1.07-3.34,1.63-5,.74-2.2,1.52-4.38,2.26-6.58s1.35-4.23,2-6.33,1.47-4.43,2.21-6.64q1.29-3.93,2.59-7.86c1-3.07,2.07-6.12,3.08-9.2a1.14,1.14,0,0,1,1.3-.86c7.64,0,15.28,0,22.92,0,2.52,0,4.68,1.28,6.69,2.8a11.38,11.38,0,0,1,4.23,6.74,16.85,16.85,0,0,1,0,6.37,49.36,49.36,0,0,1-2.19,6.8c-.77,2.27-1.56,4.53-2.31,6.8-1.17,3.59-2.29,7.18-3.47,10.76-.88,2.65-1.84,5.27-2.73,7.91-1,3.06-2,6.13-3,9.19-.75,2.24-1.56,4.45-2.3,6.68-1.17,3.58-2.29,7.17-3.47,10.74-.72,2.16-1.58,4.28-2.3,6.44-.87,2.61-1.63,5.26-2.5,7.88-1,3.15-2.18,6.27-3.22,9.42-.88,2.65-1.66,5.33-2.55,8-1,3.08-2.17,6.13-3.22,9.2-.56,1.62-1,3.27-1.56,4.89-.75,2.23-1.57,4.45-2.31,6.69-.86,2.62-1.63,5.26-2.5,7.88-1,3.16-2.16,6.29-3.21,9.44-.88,2.65-1.68,5.33-2.56,8s-1.91,5.43-2.8,8.16c-.21.64-.52.74-1.11.73H387.87Z" transform="translate(-189.32 -203.09)"/><path class="cls-1" d="M543.74,372.35h-18.6c-1.64,0-1.67-.12-1.12-1.67.74-2.11,1.36-4.26,2.06-6.38q1.9-5.74,3.83-11.47c1.28-3.81,2.57-7.62,3.84-11.43s2.57-7.8,3.86-11.69,2.56-7.76,3.85-11.63,2.55-7.68,3.84-11.52c1.12-3.32,2.3-6.63,3.41-10,1.44-4.33,2.84-8.68,4.27-13,.63-1.92,1.25-3.84,1.95-5.73a1.33,1.33,0,0,1,1-.54c1.31-.1,2.63-.12,4-.12h34c1.54,0,1.62.18,1.14,1.6-1.08,3.14-2.09,6.31-3.15,9.46s-2.16,6.23-3.2,9.37c-.88,2.65-1.68,5.34-2.57,8s-1.86,5.2-2.75,7.81c-.71,2.06-1.32,4.16-2,6.23-1.06,3.22-2.19,6.41-3.24,9.62-.88,2.68-1.66,5.38-2.56,8.05-1.2,3.58-2.51,7.12-3.72,10.7-1,3-1.95,6-2.95,9-1.08,3.25-2.2,6.49-3.27,9.74-.55,1.66-1,3.36-1.6,5-.09.27-.66.5-1,.51-2.16.05-4.32,0-6.48,0Z" transform="translate(-189.32 -203.09)"/><path class="cls-1" d="M585.84,245.85H567.25c-1.51,0-1.55-.19-1-1.68.77-2.14,1.37-4.34,2.08-6.5,1.26-3.82,2.56-7.62,3.83-11.44s2.57-7.69,3.84-11.55q1.74-5.28,3.44-10.57c.28-.86.88-1,1.66-1l9.95,0h27.83c.93,0,1.42-.1,1,1.22-1.75,4.93-3.3,9.94-5,14.91-1.38,4.1-2.86,8.17-4.23,12.27-1.19,3.56-2.29,7.14-3.44,10.71-.32,1-.61,2-1,3a1.24,1.24,0,0,1-.81.56,7.26,7.26,0,0,1-1.55.09Z" transform="translate(-189.32 -203.09)"/>
</svg>